<mxfile host="app.diagrams.net" modified="2023-11-16T04:03:43.824Z" agent="Mozilla/5.0 (Windows NT 10.0; Win64; x64) AppleWebKit/537.36 (KHTML, like Gecko) Chrome/119.0.0.0 Safari/537.36" etag="0XOmLC1VIVHgZ2npj6bh" version="22.1.2" type="device">
  <diagram name="Страница — 1" id="1_vWlX6qNDB7Y-9jnv-U">
    <mxGraphModel dx="1674" dy="828" grid="1" gridSize="10" guides="1" tooltips="1" connect="1" arrows="1" fold="1" page="1" pageScale="1" pageWidth="827" pageHeight="1169" math="0" shadow="0">
      <root>
        <mxCell id="0" />
        <mxCell id="1" parent="0" />
        <mxCell id="HE1fPIG9rekOJW1Cb98c-1" value="User" style="swimlane;fontStyle=0;childLayout=stackLayout;horizontal=1;startSize=30;horizontalStack=0;resizeParent=1;resizeParentMax=0;resizeLast=0;collapsible=1;marginBottom=0;whiteSpace=wrap;html=1;swimlaneFillColor=#99FFCC;sketch=1;curveFitting=1;jiggle=2;rounded=1;fillColor=#66FF66;" parent="1" vertex="1">
          <mxGeometry x="220" y="240" width="140" height="330" as="geometry" />
        </mxCell>
        <mxCell id="HE1fPIG9rekOJW1Cb98c-2" value="Id" style="text;strokeColor=none;fillColor=none;align=left;verticalAlign=middle;spacingLeft=4;spacingRight=4;overflow=hidden;points=[[0,0.5],[1,0.5]];portConstraint=eastwest;rotatable=0;whiteSpace=wrap;html=1;sketch=1;curveFitting=1;jiggle=2;rounded=1;" parent="HE1fPIG9rekOJW1Cb98c-1" vertex="1">
          <mxGeometry y="30" width="140" height="30" as="geometry" />
        </mxCell>
        <mxCell id="HE1fPIG9rekOJW1Cb98c-3" value="Gmail" style="text;strokeColor=none;fillColor=none;align=left;verticalAlign=middle;spacingLeft=4;spacingRight=4;overflow=hidden;points=[[0,0.5],[1,0.5]];portConstraint=eastwest;rotatable=0;whiteSpace=wrap;html=1;sketch=1;curveFitting=1;jiggle=2;rounded=1;" parent="HE1fPIG9rekOJW1Cb98c-1" vertex="1">
          <mxGeometry y="60" width="140" height="30" as="geometry" />
        </mxCell>
        <mxCell id="HE1fPIG9rekOJW1Cb98c-4" value="Password" style="text;strokeColor=none;fillColor=none;align=left;verticalAlign=middle;spacingLeft=4;spacingRight=4;overflow=hidden;points=[[0,0.5],[1,0.5]];portConstraint=eastwest;rotatable=0;whiteSpace=wrap;html=1;sketch=1;curveFitting=1;jiggle=2;rounded=1;" parent="HE1fPIG9rekOJW1Cb98c-1" vertex="1">
          <mxGeometry y="90" width="140" height="30" as="geometry" />
        </mxCell>
        <mxCell id="HE1fPIG9rekOJW1Cb98c-5" value="Nickname" style="text;strokeColor=none;fillColor=none;align=left;verticalAlign=middle;spacingLeft=4;spacingRight=4;overflow=hidden;points=[[0,0.5],[1,0.5]];portConstraint=eastwest;rotatable=0;whiteSpace=wrap;html=1;sketch=1;curveFitting=1;jiggle=2;rounded=1;" parent="HE1fPIG9rekOJW1Cb98c-1" vertex="1">
          <mxGeometry y="120" width="140" height="30" as="geometry" />
        </mxCell>
        <mxCell id="HE1fPIG9rekOJW1Cb98c-9" value="TotalWins" style="text;strokeColor=none;fillColor=none;align=left;verticalAlign=middle;spacingLeft=4;spacingRight=4;overflow=hidden;points=[[0,0.5],[1,0.5]];portConstraint=eastwest;rotatable=0;whiteSpace=wrap;html=1;sketch=1;curveFitting=1;jiggle=2;rounded=1;" parent="HE1fPIG9rekOJW1Cb98c-1" vertex="1">
          <mxGeometry y="150" width="140" height="30" as="geometry" />
        </mxCell>
        <mxCell id="HE1fPIG9rekOJW1Cb98c-10" value="TotalLoses" style="text;strokeColor=none;fillColor=none;align=left;verticalAlign=middle;spacingLeft=4;spacingRight=4;overflow=hidden;points=[[0,0.5],[1,0.5]];portConstraint=eastwest;rotatable=0;whiteSpace=wrap;html=1;sketch=1;curveFitting=1;jiggle=2;rounded=1;" parent="HE1fPIG9rekOJW1Cb98c-1" vertex="1">
          <mxGeometry y="180" width="140" height="30" as="geometry" />
        </mxCell>
        <mxCell id="HE1fPIG9rekOJW1Cb98c-11" value="WinStreak" style="text;strokeColor=none;fillColor=none;align=left;verticalAlign=middle;spacingLeft=4;spacingRight=4;overflow=hidden;points=[[0,0.5],[1,0.5]];portConstraint=eastwest;rotatable=0;whiteSpace=wrap;html=1;sketch=1;curveFitting=1;jiggle=2;rounded=1;" parent="HE1fPIG9rekOJW1Cb98c-1" vertex="1">
          <mxGeometry y="210" width="140" height="30" as="geometry" />
        </mxCell>
        <mxCell id="UcrAQfZ7vyxbdROIzqdN-2" value="&lt;b&gt;&amp;lt;Reviews&amp;gt;&lt;/b&gt;" style="text;strokeColor=none;fillColor=none;align=left;verticalAlign=middle;spacingLeft=4;spacingRight=4;overflow=hidden;points=[[0,0.5],[1,0.5]];portConstraint=eastwest;rotatable=0;whiteSpace=wrap;html=1;sketch=1;curveFitting=1;jiggle=2;rounded=1;" parent="HE1fPIG9rekOJW1Cb98c-1" vertex="1">
          <mxGeometry y="240" width="140" height="30" as="geometry" />
        </mxCell>
        <mxCell id="UcrAQfZ7vyxbdROIzqdN-3" value="&lt;b&gt;TotalSettings&lt;/b&gt;" style="text;strokeColor=none;fillColor=none;align=left;verticalAlign=middle;spacingLeft=4;spacingRight=4;overflow=hidden;points=[[0,0.5],[1,0.5]];portConstraint=eastwest;rotatable=0;whiteSpace=wrap;html=1;sketch=1;curveFitting=1;jiggle=2;rounded=1;" parent="HE1fPIG9rekOJW1Cb98c-1" vertex="1">
          <mxGeometry y="270" width="140" height="30" as="geometry" />
        </mxCell>
        <mxCell id="UcrAQfZ7vyxbdROIzqdN-22" value="&lt;b&gt;Room&lt;/b&gt;" style="text;strokeColor=none;fillColor=none;align=left;verticalAlign=middle;spacingLeft=4;spacingRight=4;overflow=hidden;points=[[0,0.5],[1,0.5]];portConstraint=eastwest;rotatable=0;whiteSpace=wrap;html=1;sketch=1;curveFitting=1;jiggle=2;rounded=1;" parent="HE1fPIG9rekOJW1Cb98c-1" vertex="1">
          <mxGeometry y="300" width="140" height="30" as="geometry" />
        </mxCell>
        <mxCell id="HE1fPIG9rekOJW1Cb98c-21" value="GameRoom" style="swimlane;fontStyle=0;childLayout=stackLayout;horizontal=1;startSize=30;horizontalStack=0;resizeParent=1;resizeParentMax=0;resizeLast=0;collapsible=1;marginBottom=0;whiteSpace=wrap;html=1;swimlaneFillColor=#FFFFCC;sketch=1;curveFitting=1;jiggle=2;rounded=1;fillColor=#FFFF00;" parent="1" vertex="1">
          <mxGeometry x="420" y="280" width="140" height="210" as="geometry" />
        </mxCell>
        <mxCell id="HE1fPIG9rekOJW1Cb98c-22" value="Id" style="text;strokeColor=none;fillColor=none;align=left;verticalAlign=middle;spacingLeft=4;spacingRight=4;overflow=hidden;points=[[0,0.5],[1,0.5]];portConstraint=eastwest;rotatable=0;whiteSpace=wrap;html=1;sketch=1;curveFitting=1;jiggle=2;rounded=1;" parent="HE1fPIG9rekOJW1Cb98c-21" vertex="1">
          <mxGeometry y="30" width="140" height="30" as="geometry" />
        </mxCell>
        <mxCell id="UcrAQfZ7vyxbdROIzqdN-54" value="RoomCode" style="text;strokeColor=none;fillColor=none;align=left;verticalAlign=middle;spacingLeft=4;spacingRight=4;overflow=hidden;points=[[0,0.5],[1,0.5]];portConstraint=eastwest;rotatable=0;whiteSpace=wrap;html=1;sketch=1;curveFitting=1;jiggle=2;rounded=1;" parent="HE1fPIG9rekOJW1Cb98c-21" vertex="1">
          <mxGeometry y="60" width="140" height="30" as="geometry" />
        </mxCell>
        <mxCell id="HE1fPIG9rekOJW1Cb98c-37" value="PlayerAmount" style="text;strokeColor=none;fillColor=none;align=left;verticalAlign=middle;spacingLeft=4;spacingRight=4;overflow=hidden;points=[[0,0.5],[1,0.5]];portConstraint=eastwest;rotatable=0;whiteSpace=wrap;html=1;sketch=1;curveFitting=1;jiggle=2;rounded=1;" parent="HE1fPIG9rekOJW1Cb98c-21" vertex="1">
          <mxGeometry y="90" width="140" height="30" as="geometry" />
        </mxCell>
        <mxCell id="UcrAQfZ7vyxbdROIzqdN-20" value="&lt;b&gt;&amp;lt;Users&amp;gt;&lt;/b&gt;" style="text;strokeColor=none;fillColor=none;align=left;verticalAlign=middle;spacingLeft=4;spacingRight=4;overflow=hidden;points=[[0,0.5],[1,0.5]];portConstraint=eastwest;rotatable=0;whiteSpace=wrap;html=1;sketch=1;curveFitting=1;jiggle=2;rounded=1;" parent="HE1fPIG9rekOJW1Cb98c-21" vertex="1">
          <mxGeometry y="120" width="140" height="30" as="geometry" />
        </mxCell>
        <mxCell id="UcrAQfZ7vyxbdROIzqdN-24" value="&lt;b&gt;Event&lt;/b&gt;" style="text;strokeColor=none;fillColor=none;align=left;verticalAlign=middle;spacingLeft=4;spacingRight=4;overflow=hidden;points=[[0,0.5],[1,0.5]];portConstraint=eastwest;rotatable=0;whiteSpace=wrap;html=1;sketch=1;curveFitting=1;jiggle=2;rounded=1;" parent="HE1fPIG9rekOJW1Cb98c-21" vertex="1">
          <mxGeometry y="150" width="140" height="30" as="geometry" />
        </mxCell>
        <mxCell id="a1MhqljtxY9yNocG2gbd-4" value="&lt;b&gt;&amp;lt;Games&amp;gt;&lt;/b&gt;" style="text;strokeColor=none;fillColor=none;align=left;verticalAlign=middle;spacingLeft=4;spacingRight=4;overflow=hidden;points=[[0,0.5],[1,0.5]];portConstraint=eastwest;rotatable=0;whiteSpace=wrap;html=1;sketch=1;curveFitting=1;jiggle=2;rounded=1;" parent="HE1fPIG9rekOJW1Cb98c-21" vertex="1">
          <mxGeometry y="180" width="140" height="30" as="geometry" />
        </mxCell>
        <mxCell id="HE1fPIG9rekOJW1Cb98c-27" value="GameEvent" style="swimlane;fontStyle=0;childLayout=stackLayout;horizontal=1;startSize=30;horizontalStack=0;resizeParent=1;resizeParentMax=0;resizeLast=0;collapsible=1;marginBottom=0;whiteSpace=wrap;html=1;swimlaneFillColor=#E5CCFF;sketch=1;curveFitting=1;jiggle=2;rounded=1;fillColor=#FF66FF;" parent="1" vertex="1">
          <mxGeometry x="600" y="440" width="140" height="180" as="geometry" />
        </mxCell>
        <mxCell id="HE1fPIG9rekOJW1Cb98c-28" value="Id" style="text;strokeColor=none;fillColor=none;align=left;verticalAlign=middle;spacingLeft=4;spacingRight=4;overflow=hidden;points=[[0,0.5],[1,0.5]];portConstraint=eastwest;rotatable=0;whiteSpace=wrap;html=1;sketch=1;curveFitting=1;jiggle=2;rounded=1;" parent="HE1fPIG9rekOJW1Cb98c-27" vertex="1">
          <mxGeometry y="30" width="140" height="30" as="geometry" />
        </mxCell>
        <mxCell id="HE1fPIG9rekOJW1Cb98c-29" value="GameEventName" style="text;strokeColor=none;fillColor=none;align=left;verticalAlign=middle;spacingLeft=4;spacingRight=4;overflow=hidden;points=[[0,0.5],[1,0.5]];portConstraint=eastwest;rotatable=0;whiteSpace=wrap;html=1;sketch=1;curveFitting=1;jiggle=2;rounded=1;" parent="HE1fPIG9rekOJW1Cb98c-27" vertex="1">
          <mxGeometry y="60" width="140" height="30" as="geometry" />
        </mxCell>
        <mxCell id="HE1fPIG9rekOJW1Cb98c-31" value="Rounds" style="text;strokeColor=none;fillColor=none;align=left;verticalAlign=middle;spacingLeft=4;spacingRight=4;overflow=hidden;points=[[0,0.5],[1,0.5]];portConstraint=eastwest;rotatable=0;whiteSpace=wrap;html=1;sketch=1;curveFitting=1;jiggle=2;rounded=1;" parent="HE1fPIG9rekOJW1Cb98c-27" vertex="1">
          <mxGeometry y="90" width="140" height="30" as="geometry" />
        </mxCell>
        <mxCell id="HE1fPIG9rekOJW1Cb98c-30" value="Time" style="text;strokeColor=none;fillColor=none;align=left;verticalAlign=middle;spacingLeft=4;spacingRight=4;overflow=hidden;points=[[0,0.5],[1,0.5]];portConstraint=eastwest;rotatable=0;whiteSpace=wrap;html=1;sketch=1;curveFitting=1;jiggle=2;rounded=1;" parent="HE1fPIG9rekOJW1Cb98c-27" vertex="1">
          <mxGeometry y="120" width="140" height="30" as="geometry" />
        </mxCell>
        <mxCell id="UcrAQfZ7vyxbdROIzqdN-43" value="&lt;b&gt;&amp;lt;GameRooms&amp;gt;&lt;/b&gt;" style="text;strokeColor=none;fillColor=none;align=left;verticalAlign=middle;spacingLeft=4;spacingRight=4;overflow=hidden;points=[[0,0.5],[1,0.5]];portConstraint=eastwest;rotatable=0;whiteSpace=wrap;html=1;sketch=1;curveFitting=1;jiggle=2;rounded=1;" parent="HE1fPIG9rekOJW1Cb98c-27" vertex="1">
          <mxGeometry y="150" width="140" height="30" as="geometry" />
        </mxCell>
        <mxCell id="UcrAQfZ7vyxbdROIzqdN-14" value="" style="edgeStyle=orthogonalEdgeStyle;rounded=0;sketch=1;hachureGap=4;jiggle=2;curveFitting=1;orthogonalLoop=1;jettySize=auto;html=1;fontFamily=Architects Daughter;fontSource=https%3A%2F%2Ffonts.googleapis.com%2Fcss%3Ffamily%3DArchitects%2BDaughter;fontSize=16;exitX=1;exitY=0.5;exitDx=0;exitDy=0;entryX=0;entryY=0.5;entryDx=0;entryDy=0;" parent="1" source="UcrAQfZ7vyxbdROIzqdN-4" target="UcrAQfZ7vyxbdROIzqdN-8" edge="1">
          <mxGeometry relative="1" as="geometry">
            <mxPoint x="450" y="980" as="sourcePoint" />
            <mxPoint x="440" y="1020" as="targetPoint" />
          </mxGeometry>
        </mxCell>
        <mxCell id="UcrAQfZ7vyxbdROIzqdN-4" value="User" style="rounded=0;whiteSpace=wrap;html=1;sketch=1;hachureGap=4;jiggle=2;curveFitting=1;fontFamily=Architects Daughter;fontSource=https%3A%2F%2Ffonts.googleapis.com%2Fcss%3Ffamily%3DArchitects%2BDaughter;fontSize=20;" parent="1" vertex="1">
          <mxGeometry x="80" y="880" width="200" height="40" as="geometry" />
        </mxCell>
        <mxCell id="m06OcviDIbmnd7MMp4RJ-4" value="" style="edgeStyle=orthogonalEdgeStyle;rounded=0;sketch=1;hachureGap=4;jiggle=2;curveFitting=1;orthogonalLoop=1;jettySize=auto;html=1;fontFamily=Architects Daughter;fontSource=https%3A%2F%2Ffonts.googleapis.com%2Fcss%3Ffamily%3DArchitects%2BDaughter;fontSize=16;" edge="1" parent="1" source="UcrAQfZ7vyxbdROIzqdN-8" target="UcrAQfZ7vyxbdROIzqdN-9">
          <mxGeometry relative="1" as="geometry" />
        </mxCell>
        <mxCell id="UcrAQfZ7vyxbdROIzqdN-8" value="GameRoom" style="rounded=0;whiteSpace=wrap;html=1;sketch=1;hachureGap=4;jiggle=2;curveFitting=1;fontFamily=Architects Daughter;fontSource=https%3A%2F%2Ffonts.googleapis.com%2Fcss%3Ffamily%3DArchitects%2BDaughter;fontSize=20;" parent="1" vertex="1">
          <mxGeometry x="320" y="880" width="200" height="40" as="geometry" />
        </mxCell>
        <mxCell id="UcrAQfZ7vyxbdROIzqdN-9" value="Game" style="rounded=0;whiteSpace=wrap;html=1;sketch=1;hachureGap=4;jiggle=2;curveFitting=1;fontFamily=Architects Daughter;fontSource=https%3A%2F%2Ffonts.googleapis.com%2Fcss%3Ffamily%3DArchitects%2BDaughter;fontSize=20;" parent="1" vertex="1">
          <mxGeometry x="560" y="880" width="200" height="40" as="geometry" />
        </mxCell>
        <mxCell id="m06OcviDIbmnd7MMp4RJ-7" value="" style="edgeStyle=orthogonalEdgeStyle;rounded=0;sketch=1;hachureGap=4;jiggle=2;curveFitting=1;orthogonalLoop=1;jettySize=auto;html=1;fontFamily=Architects Daughter;fontSource=https%3A%2F%2Ffonts.googleapis.com%2Fcss%3Ffamily%3DArchitects%2BDaughter;fontSize=16;" edge="1" parent="1" source="UcrAQfZ7vyxbdROIzqdN-10" target="UcrAQfZ7vyxbdROIzqdN-9">
          <mxGeometry relative="1" as="geometry" />
        </mxCell>
        <mxCell id="UcrAQfZ7vyxbdROIzqdN-10" value="GameEvent" style="rounded=0;whiteSpace=wrap;html=1;sketch=1;hachureGap=4;jiggle=2;curveFitting=1;fontFamily=Architects Daughter;fontSource=https%3A%2F%2Ffonts.googleapis.com%2Fcss%3Ffamily%3DArchitects%2BDaughter;fontSize=20;" parent="1" vertex="1">
          <mxGeometry x="560" y="960" width="200" height="40" as="geometry" />
        </mxCell>
        <mxCell id="UcrAQfZ7vyxbdROIzqdN-31" value="Game" style="swimlane;fontStyle=0;childLayout=stackLayout;horizontal=1;startSize=30;horizontalStack=0;resizeParent=1;resizeParentMax=0;resizeLast=0;collapsible=1;marginBottom=0;whiteSpace=wrap;html=1;swimlaneFillColor=#FFCCCC;sketch=1;curveFitting=1;jiggle=2;rounded=1;fillColor=#FF3333;" parent="1" vertex="1">
          <mxGeometry x="603" y="190" width="140" height="150" as="geometry" />
        </mxCell>
        <mxCell id="UcrAQfZ7vyxbdROIzqdN-32" value="Id" style="text;strokeColor=none;fillColor=none;align=left;verticalAlign=middle;spacingLeft=4;spacingRight=4;overflow=hidden;points=[[0,0.5],[1,0.5]];portConstraint=eastwest;rotatable=0;whiteSpace=wrap;html=1;sketch=1;curveFitting=1;jiggle=2;rounded=1;" parent="UcrAQfZ7vyxbdROIzqdN-31" vertex="1">
          <mxGeometry y="30" width="140" height="30" as="geometry" />
        </mxCell>
        <mxCell id="UcrAQfZ7vyxbdROIzqdN-42" value="Winners" style="text;strokeColor=none;fillColor=none;align=left;verticalAlign=middle;spacingLeft=4;spacingRight=4;overflow=hidden;points=[[0,0.5],[1,0.5]];portConstraint=eastwest;rotatable=0;whiteSpace=wrap;html=1;sketch=1;curveFitting=1;jiggle=2;rounded=1;" parent="UcrAQfZ7vyxbdROIzqdN-31" vertex="1">
          <mxGeometry y="60" width="140" height="30" as="geometry" />
        </mxCell>
        <mxCell id="a1MhqljtxY9yNocG2gbd-1" value="Losers" style="text;strokeColor=none;fillColor=none;align=left;verticalAlign=middle;spacingLeft=4;spacingRight=4;overflow=hidden;points=[[0,0.5],[1,0.5]];portConstraint=eastwest;rotatable=0;whiteSpace=wrap;html=1;sketch=1;curveFitting=1;jiggle=2;rounded=1;" parent="UcrAQfZ7vyxbdROIzqdN-31" vertex="1">
          <mxGeometry y="90" width="140" height="30" as="geometry" />
        </mxCell>
        <mxCell id="UcrAQfZ7vyxbdROIzqdN-23" value="&lt;b&gt;Room&lt;/b&gt;" style="text;strokeColor=none;fillColor=none;align=left;verticalAlign=middle;spacingLeft=4;spacingRight=4;overflow=hidden;points=[[0,0.5],[1,0.5]];portConstraint=eastwest;rotatable=0;whiteSpace=wrap;html=1;sketch=1;curveFitting=1;jiggle=2;rounded=1;" parent="UcrAQfZ7vyxbdROIzqdN-31" vertex="1">
          <mxGeometry y="120" width="140" height="30" as="geometry" />
        </mxCell>
      </root>
    </mxGraphModel>
  </diagram>
</mxfile>
